<svg xmlns="http://www.w3.org/2000/svg" version="1.1" xmlns:xlink="http://www.w3.org/1999/xlink" width="1000" height="1000"><metadata><rdf:RDF xmlns:rdf="http://www.w3.org/1999/02/22-rdf-syntax-ns#" xmlns:dc="http://purl.org/dc/elements/1.1/"><rdf:Description><dc:creator>RealFaviconGenerator</dc:creator><dc:source>https://realfavicongenerator.net</dc:source></rdf:Description></rdf:RDF></metadata><g clip-path="url(#SvgjsClipPath1361)"><rect width="1000" height="1000" fill="#ffffff"></rect><g transform="matrix(1.25,0,0,1.25,100,100)"><svg xmlns="http://www.w3.org/2000/svg" viewBox="0 0 640 640" width="640" height="640"><metadata><rdf:rdf xmlns:rdf="http://www.w3.org/1999/02/22-rdf-syntax-ns#" xmlns:dc="http://purl.org/dc/elements/1.1/"><rdf:description><dc:creator>RealFaviconGenerator</dc:creator><dc:source>https://realfavicongenerator.net</dc:source></rdf:description></rdf:rdf></metadata><path d="M127.9 78.4c-.8-8.2-7.7-14.4-15.9-14.4s-15.1 6.2-16 14.3L81.9 213.7c-1.3 6-1.9 12.1-1.9 18.2 0 45.9 35.1 83.6 80 87.7V544c0 17.7 14.3 32 32 32s32-14.3 32-32V319.6c44.9-4.1 80-41.8 80-87.7 0-6.1-.6-12.2-1.9-18.2L287.9 78.3c-.8-8.1-7.7-14.3-15.9-14.3s-15.1 6.2-15.9 14.4l-13.6 135.5c-.6 5.7-5.4 10.1-11.1 10.1-5.8 0-10.6-4.4-11.2-10.2L207.9 78.6c-.7-8.3-7.6-14.6-15.9-14.6s-15.2 6.3-15.9 14.6l-12.3 135.2c-.5 5.8-5.4 10.2-11.2 10.2s-10.6-4.4-11.1-10.1zM512 64c-16 0-128 32-128 176v112c0 35.3 28.7 64 64 64h32v128c0 17.7 14.3 32 32 32s32-14.3 32-32V96c0-17.7-14.3-32-32-32"></path></svg></g></g><defs><clipPath id="SvgjsClipPath1361"><rect width="1000" height="1000" x="0" y="0" rx="500" ry="500"></rect></clipPath></defs></svg>